<svg width="220" height="64" viewBox="0 0 220 64" fill="none" xmlns="http://www.w3.org/2000/svg">
<g clip-path="url(#clip0_6898_244)">
<path fill-rule="evenodd" clip-rule="evenodd" d="M35.9802 19.5952L35.9793 29.0912L35.9811 40.3997C35.9811 47.1911 36.5989 53.3805 31.3888 58.7166C27.8639 62.327 22.6845 63.9342 17.7372 63.9568C12.9001 63.9794 8.33211 62.7807 4.84155 59.2671C2.48983 56.8987 1.23991 54.1326 0.505675 50.8955C-0.0714187 48.3464 0.00263713 46.1236 0.00354025 43.5518L0.00534649 38.0386L0.00444337 19.5943L10.2485 19.5952L10.2494 38.7798L10.2458 43.9911C10.244 46.8639 10.1402 50.2863 12.3555 52.4928C15.0585 55.1486 20.8665 55.1062 23.5388 52.4377C25.8445 50.1353 25.7208 47.0257 25.719 44.021L25.7154 38.7455L25.7163 19.5943L35.9802 19.5952ZM135.181 52.6664C135.918 52.6664 136.623 52.7947 137.298 53.0506C137.972 53.3064 138.571 53.6743 139.093 54.1561C139.624 54.637 140.044 55.2201 140.351 55.9062C140.658 56.5923 140.811 57.3651 140.811 58.2239C140.811 59.0845 140.658 59.8573 140.351 60.5434C140.044 61.2295 139.624 61.8126 139.093 62.2935C138.571 62.7744 137.972 63.1432 137.298 63.399C136.623 63.6549 135.918 63.7832 135.181 63.7832C134.445 63.7832 133.739 63.6549 133.065 63.399C132.4 63.1432 131.801 62.7744 131.269 62.2935C130.748 61.8126 130.334 61.2286 130.027 60.5434C129.73 59.8573 129.581 59.0845 129.581 58.2239C129.581 57.3642 129.73 56.5923 130.027 55.9062C130.334 55.2201 130.748 54.637 131.269 54.1561C131.801 53.6743 132.4 53.3064 133.065 53.0506C133.739 52.7947 134.445 52.6664 135.181 52.6664ZM156.031 52.6664C157.32 52.6664 158.384 52.9737 159.223 53.5884C160.071 54.2022 160.623 55.0564 160.879 56.152H158.209C158.046 55.7525 157.785 55.446 157.427 55.2309C157.07 55.0058 156.605 54.8928 156.031 54.8928C155.449 54.8928 154.932 55.0311 154.482 55.3077C154.032 55.5735 153.674 55.9631 153.408 56.4748C153.153 56.9864 153.025 57.611 153.025 58.3477C153.025 59.0646 153.153 59.6684 153.408 60.1593C153.664 60.6501 154.006 61.0189 154.436 61.2648C154.876 61.5107 155.362 61.6336 155.894 61.6336C156.661 61.6336 157.259 61.4691 157.688 61.1419C158.118 60.8038 158.414 60.369 158.578 59.8375H155.464V57.7484H161.079V63.5988H158.854L158.67 62.4164C158.353 62.8567 157.944 63.1947 157.443 63.4298C156.952 63.6657 156.344 63.7832 155.617 63.7832C154.605 63.7832 153.715 63.5581 152.948 63.108C152.191 62.6469 151.603 62.0069 151.184 61.188C150.765 60.369 150.555 59.4117 150.555 58.317C150.555 57.263 150.76 56.3111 151.169 55.4614C151.588 54.6117 152.202 53.9364 153.01 53.4347C153.828 52.9231 154.835 52.6664 156.031 52.6664ZM210.752 52.6664C212.081 52.6664 213.176 53.0045 214.035 53.6797C214.894 54.345 215.421 55.2924 215.615 56.5209H212.961C212.859 55.9984 212.608 55.5943 212.209 55.3077C211.82 55.0212 211.32 54.8775 210.706 54.8775C210.175 54.8775 209.699 55.0049 209.279 55.2607C208.86 55.5066 208.533 55.8809 208.297 56.3816C208.063 56.8734 207.945 57.498 207.945 58.2555C207.945 58.9923 208.058 59.6115 208.283 60.1132C208.518 60.6049 208.846 60.9792 209.265 61.235C209.684 61.4799 210.164 61.6029 210.706 61.6029C211.32 61.6029 211.82 61.4745 212.209 61.2187C212.608 60.9529 212.859 60.5787 212.961 60.0978H215.615C215.421 61.244 214.894 62.1453 214.035 62.8006C213.176 63.4551 212.081 63.7832 210.752 63.7832C209.638 63.7832 208.687 63.5473 207.899 63.0772C207.112 62.5954 206.507 61.9401 206.088 61.1111C205.679 60.2822 205.475 59.3294 205.475 58.2555C205.475 57.1807 205.675 56.2234 206.074 55.3846C206.482 54.5349 207.081 53.8686 207.868 53.3877C208.656 52.9068 209.617 52.6664 210.752 52.6664ZM56.4865 36.3373C61.5448 38.289 67.9787 39.5509 70.7395 44.7685C72.767 48.6022 72.5024 53.9654 69.989 57.5306C68.6262 59.4614 67.1767 60.679 65.1013 61.7918C62.4118 63.1848 59.474 63.6214 56.4811 63.6494L56.482 55.475C58.4806 55.4641 60.5189 54.9109 61.3913 52.9005C61.8095 51.936 61.795 50.524 61.3742 49.5685C60.5731 47.7516 58.1825 46.854 56.482 46.1498L56.4865 36.3373ZM146.042 52.8508C146.778 52.8508 147.427 52.9792 147.99 53.235C148.552 53.4908 148.992 53.8587 149.309 54.3405C149.626 54.8106 149.784 55.3737 149.784 56.0291C149.784 56.745 149.59 57.3444 149.202 57.8253C148.813 58.3062 148.276 58.6497 147.591 58.8549L150.521 63.5988H147.73L145.167 59.2228H144.37V63.5988H141.946V52.8508H146.042ZM172.259 63.5988H169.697L168.946 61.3724H164.958L164.191 63.5988H161.674L165.571 52.8508H168.348L172.259 63.5988ZM179.607 59.6214V52.8508H182.03V63.5988H179.607L175.02 56.858V63.5988H172.596V52.8508H175.02L179.607 59.6214ZM185.911 63.5988H183.488V52.8508H185.911V63.5988ZM194.625 54.6786L189.916 61.5568H194.64V63.5988H187.139V61.771L191.817 54.8621H187.17V52.8508H194.625V54.6786ZM205.744 63.5988H203.182L202.431 61.3724H198.442L197.676 63.5988H195.16L199.056 52.8508H201.832L205.744 63.5988ZM219.185 63.5988H216.761V52.8508H219.185V63.5988ZM50.0824 49.8903C50.5765 52.8201 51.923 54.6931 54.9494 55.3773V63.5934C51.1346 63.3981 47.1455 62.2673 44.2375 59.7064C41.1072 56.9493 40.1662 53.9147 39.9034 49.8885L50.0824 49.8903ZM96.4333 19.0474C108.708 18.6533 118.982 28.2858 119.391 40.5706C119.8 52.8562 110.188 63.1504 97.9144 63.5744C85.6202 63.9984 75.3138 54.3586 74.9038 42.0531C74.4956 29.7475 84.1382 19.4424 96.4333 19.0474ZM135.181 54.8621C134.69 54.8621 134.204 54.985 133.724 55.2309C133.253 55.4659 132.86 55.8348 132.543 56.3364C132.236 56.8273 132.083 57.4573 132.083 58.2239C132.083 58.9814 132.236 59.6115 132.543 60.1132C132.849 60.6049 133.238 60.9728 133.709 61.2187C134.189 61.4646 134.68 61.5875 135.181 61.5875C135.682 61.5875 136.173 61.4646 136.654 61.2187C137.134 60.9728 137.528 60.6049 137.835 60.1132C138.152 59.6115 138.31 58.9814 138.31 58.2239C138.31 57.4564 138.152 56.8273 137.835 56.3364C137.518 55.8348 137.119 55.4659 136.638 55.2309C136.158 54.985 135.672 54.8621 135.181 54.8621ZM165.632 59.437H168.286L166.936 55.522L165.632 59.437ZM199.117 59.437H201.771L200.421 55.522L199.117 59.437ZM100.22 25.4682C98.0327 25.0415 96.2445 25.1283 94.0752 25.4619C94.1664 26.3541 94.3706 27.5563 94.5232 28.4476C93.4738 28.6899 92.8876 28.8933 91.8861 29.2992L90.526 26.6008C88.4641 27.5292 86.9839 28.6637 85.4125 30.2546L87.5231 32.4088C86.983 33.1943 86.4619 33.9518 85.9562 34.7599C85.0278 34.2718 84.075 33.7954 83.1394 33.319C81.977 35.4018 81.5029 37.0415 81.1389 39.3602L81.2329 39.3909C82.2877 39.5464 83.3426 39.7136 84.3947 39.8926C84.3071 40.6573 84.2673 41.9853 84.3974 42.7392C83.3146 42.9082 82.2173 43.0899 81.1344 43.2463C81.4948 45.4944 81.9933 47.3466 83.1701 49.3416C84.0976 48.8436 85.0314 48.3527 85.9679 47.87C86.4655 48.7034 86.9595 49.4872 87.6062 50.2167L85.4495 52.4124C87.0995 54.0702 88.3964 55.0094 90.5206 56.0309L91.8843 53.2458C92.7187 53.639 93.6065 54.0187 94.525 54.1642C94.3597 55.1604 94.2071 56.1593 94.0689 57.159C96.6076 57.5568 97.7112 57.5306 100.225 57.159C100.081 56.1909 99.9437 55.1233 99.7712 54.167C100.72 53.9708 101.505 53.7032 102.404 53.329L103.763 56.0309C105.69 55.0962 107.427 53.969 108.877 52.3672L106.772 50.2149C107.267 49.4881 107.893 48.6167 108.326 47.8673L111.152 49.3073C112.317 47.145 112.797 45.6662 113.165 43.2309L113.024 43.2255C112.054 43.1098 110.878 42.891 109.895 42.7355C110.024 42.0205 109.985 40.6194 109.901 39.8908C110.983 39.7073 112.069 39.5364 113.156 39.3792C112.836 37.0569 112.284 35.3936 111.165 33.3471C110.229 33.8515 109.202 34.3532 108.25 34.8404C107.804 33.8885 107.356 33.2838 106.682 32.4919C107.417 31.7588 108.152 30.9923 108.879 30.2483C107.302 28.6022 105.812 27.5717 103.769 26.6036L102.412 29.3778C101.444 28.9059 100.81 28.6935 99.7721 28.444C99.9356 27.4551 100.085 26.4616 100.22 25.4682ZM144.37 57.1654H145.996C146.374 57.1654 146.656 57.1093 146.84 56.9963C147.034 56.8734 147.167 56.7251 147.238 56.5516C147.31 56.3771 147.346 56.2027 147.346 56.0291C147.346 55.8546 147.31 55.6856 147.238 55.522C147.167 55.3484 147.034 55.2047 146.84 55.0926C146.656 54.9796 146.374 54.9236 145.996 54.9236H144.37V57.1654ZM96.5019 45.6562C96.986 45.7882 97.3238 45.7674 97.8178 45.7186C98.1709 48.2804 98.6125 51.1025 99.046 53.6517C98.6676 53.7086 98.2711 53.7529 97.89 53.8008C96.9282 53.8488 96.1885 53.8018 95.2457 53.6472C95.4019 52.9665 95.5536 51.748 95.6656 51.0248C95.9357 49.2341 96.2138 47.4442 96.5019 45.6562ZM94.0129 44.5118C94.3534 44.8164 94.7201 45.0732 95.0894 45.3425L91.5582 52.4847C91.1184 52.2668 90.6994 52.0002 90.2812 51.7453C89.5407 51.2336 89.0765 50.8368 88.428 50.2176L94.0129 44.5118ZM100.183 44.4512C100.349 44.5525 101.573 45.8271 101.762 46.0205L105.785 50.138C105.257 50.6695 104.694 51.1676 104.103 51.6286C103.616 51.9803 103.266 52.1963 102.742 52.4847L99.1219 45.2621C99.5445 45.0162 99.8371 44.7957 100.183 44.4512ZM219.783 50.6858L216.148 52.2515V50.5936L219.783 48.7667V50.6858ZM92.8208 42.1344C92.9545 42.3667 93.1685 43.0962 93.2787 43.4126C92.0486 44.0969 90.5684 44.7803 89.3031 45.4492C88.5021 45.8714 87.0192 46.6677 86.2325 46.9896L86.1386 46.8711C85.5823 45.7349 85.2527 44.5814 85.0639 43.3367C87.3632 42.8874 90.2279 42.4942 92.5625 42.1245C92.6926 42.0946 92.6889 42.1019 92.8208 42.1344ZM101.428 41.9816C103.871 42.4309 106.769 42.8738 109.233 43.23C109.065 44.4802 108.849 45.1979 108.369 46.3604L108.084 46.9398C105.796 45.7123 103.345 44.5308 101.026 43.324C101.205 42.816 101.316 42.5077 101.428 41.9816ZM133.509 35.776C134.204 35.776 134.838 35.8998 135.411 36.1457C135.994 36.3807 136.465 36.7342 136.823 37.2051C137.18 37.6752 137.364 38.2592 137.374 38.9552H134.766C134.756 38.6786 134.639 38.4183 134.414 38.1724C134.189 37.9265 133.857 37.8036 133.417 37.8036C133.1 37.8135 132.829 37.9057 132.604 38.0793C132.389 38.2429 132.283 38.4788 132.283 38.7862C132.283 39.0519 132.395 39.2824 132.619 39.4768C132.844 39.6711 133.161 39.851 133.57 40.0146C133.99 40.1783 134.475 40.3518 135.028 40.5362C135.447 40.6799 135.815 40.849 136.132 41.0433C136.459 41.2268 136.73 41.4474 136.945 41.7032C137.159 41.9491 137.324 42.2311 137.437 42.5484C137.549 42.8657 137.605 43.2237 137.605 43.6223C137.605 44.2777 137.436 44.8508 137.099 45.3425C136.771 45.8334 136.316 46.2176 135.733 46.4942C135.15 46.7599 134.481 46.8928 133.724 46.8928C132.967 46.8928 132.277 46.7708 131.653 46.5249C131.04 46.2691 130.543 45.8894 130.165 45.3877C129.796 44.8761 129.598 44.2316 129.567 43.4542H132.113C132.153 43.8122 132.297 44.1349 132.543 44.4214C132.798 44.708 133.182 44.8517 133.693 44.8517C134.133 44.8517 134.46 44.7532 134.675 44.5588C134.9 44.3645 135.013 44.1087 135.013 43.7923C135.013 43.6485 134.987 43.5148 134.936 43.3918C134.895 43.2689 134.808 43.1514 134.675 43.0393C134.542 42.9163 134.337 42.7934 134.061 42.6705C133.795 42.5484 133.438 42.4146 132.988 42.2718C132.149 42.006 131.494 41.6933 131.024 41.3353C130.553 40.9773 130.222 40.5923 130.027 40.1828C129.843 39.7742 129.751 39.3538 129.751 38.9245C129.761 38.2284 129.935 37.6499 130.272 37.1889C130.61 36.7179 131.06 36.3654 131.622 36.1294C132.185 35.8944 132.814 35.776 133.509 35.776ZM165.801 35.776C166.537 35.776 167.242 35.9044 167.918 36.1602C168.593 36.416 169.19 36.7848 169.712 37.2657C170.244 37.7466 170.664 38.3306 170.97 39.0158C171.278 39.7019 171.43 40.4757 171.43 41.3353C171.43 42.195 171.278 42.9679 170.97 43.6531C170.664 44.3392 170.244 44.9231 169.712 45.404C169.19 45.8849 168.593 46.2528 167.918 46.5095C167.242 46.7654 166.537 46.8928 165.801 46.8928C165.065 46.8928 164.359 46.7654 163.684 46.5095C163.019 46.2528 162.421 45.8849 161.89 45.404C161.368 44.9231 160.953 44.3392 160.647 43.6531C160.35 42.9679 160.202 42.195 160.202 41.3353C160.202 40.4757 160.35 39.7019 160.647 39.0158C160.953 38.3306 161.368 37.7466 161.89 37.2657C162.421 36.7848 163.019 36.416 163.684 36.1602C164.359 35.9044 165.065 35.776 165.801 35.776ZM196.144 35.776C197.473 35.776 198.568 36.1141 199.427 36.7902C200.286 37.4555 200.813 38.402 201.007 39.6305H198.354C198.251 39.1089 198 38.7039 197.602 38.4173C197.212 38.1308 196.712 37.988 196.099 37.988C195.567 37.988 195.091 38.1154 194.672 38.3722C194.253 38.6171 193.925 38.9905 193.69 39.4922C193.455 39.983 193.337 40.6076 193.337 41.3651C193.337 42.1019 193.45 42.722 193.675 43.2237C193.91 43.7145 194.238 44.0888 194.657 44.3446C195.076 44.5905 195.557 44.7125 196.099 44.7125C196.712 44.7125 197.212 44.5841 197.602 44.3283C198 44.0625 198.251 43.6892 198.354 43.2083H201.007C200.813 44.3545 200.286 45.2558 199.427 45.9102C198.568 46.5656 197.473 46.8928 196.144 46.8928C195.03 46.8928 194.079 46.6578 193.291 46.1868C192.504 45.7059 191.9 45.0506 191.48 44.2216C191.071 43.3927 190.868 42.4399 190.868 41.3651C190.868 40.2903 191.067 39.334 191.466 38.4942C191.875 37.6454 192.473 36.9801 193.26 36.4983C194.048 36.0173 195.009 35.776 196.144 35.776ZM141.168 46.7084H138.745V35.9613H141.168V46.7084ZM146.885 35.9613C147.622 35.9613 148.287 36.0942 148.879 36.3599C149.473 36.6257 149.939 37.0108 150.275 37.5116C150.623 38.0133 150.797 38.6126 150.797 39.3086C150.797 39.9938 150.63 40.5932 150.292 41.1048C149.965 41.6065 149.503 41.9952 148.911 42.2718C148.327 42.5484 147.653 42.6858 146.885 42.6858H145.045V46.7084H142.622V35.9613H146.885ZM154.125 39.5997L157.439 35.9613H160.416L156.657 40.0454L160.845 46.7084H158.038L155.061 41.7493L154.125 42.7789V46.7084H151.702V35.9613H154.125V39.5997ZM176.512 44.2677L179.32 35.9613H184.389L186.551 39.7841L188.699 35.9613H191.399L187.732 42.2411V46.7084H185.325V42.2411L181.78 36.1963L178 46.7084H174.993L171.143 35.9613H173.705L176.512 44.2677ZM204.564 39.9839H208.874V35.9613H211.283V46.7084H208.874V42.0711H204.564V46.7084H202.14V35.9613H204.564V39.9839ZM54.8889 19.2011C54.9927 19.3981 54.9476 26.4463 54.9476 27.2924C53.5026 27.4641 51.7559 28.1096 51.1355 29.4971C49.6526 32.8146 52.585 34.5457 54.9476 35.7064L54.9467 45.6011C52.2481 44.7034 50.3579 44.1222 47.7948 42.7355C43.7714 40.4232 40.8327 37.1853 40.6575 32.3419C40.3477 23.7624 46.9775 19.5301 54.8437 19.1812L54.8889 19.2011ZM165.801 37.9717C165.31 37.9717 164.825 38.0955 164.343 38.3405C163.874 38.5764 163.479 38.9444 163.162 39.446C162.855 39.9378 162.702 40.5679 162.702 41.3353C162.702 42.0928 162.855 42.722 163.162 43.2237C163.469 43.7145 163.857 44.0833 164.328 44.3283C164.808 44.5742 165.3 44.698 165.801 44.698C166.302 44.698 166.793 44.5742 167.274 44.3283C167.754 44.0833 168.148 43.7145 168.454 43.2237C168.771 42.722 168.93 42.0928 168.93 41.3353C168.93 40.5679 168.771 39.9378 168.454 39.446C168.137 38.9444 167.738 38.5764 167.258 38.3405C166.777 38.0955 166.291 37.9717 165.801 37.9717ZM96.9056 38.5837C98.4075 38.4499 99.7351 39.5599 99.8724 41.0632C100.009 42.5674 98.9033 43.8989 97.4005 44.039C95.895 44.1792 94.5593 43.0682 94.4229 41.5604C94.2857 40.0526 95.3983 38.7184 96.9056 38.5837ZM98.6857 40.9231C98.4716 40.0725 97.6064 39.5572 96.7584 39.776C95.9167 39.9938 95.4082 40.8517 95.6196 41.6951C95.8318 42.5385 96.6861 43.0528 97.5297 42.8458C98.3813 42.6361 98.8997 41.7737 98.6857 40.9231ZM93.2787 39.2933C93.1017 39.7706 92.9915 40.1493 92.8542 40.6384L92.1534 40.5272C89.8811 40.1177 87.3569 39.7317 85.0702 39.3909C85.2328 37.9834 85.6003 36.9457 86.2091 35.6847L93.2787 39.2933ZM145.045 40.6131H146.825C147.397 40.6131 147.791 40.4847 148.006 40.2289C148.231 39.9631 148.344 39.6558 148.344 39.3086C148.344 38.9805 148.231 38.6885 148.006 38.4327C147.791 38.167 147.397 38.0341 146.825 38.0341H145.045V40.6131ZM108.128 35.7064C108.67 36.7432 109.076 38.1453 109.227 39.3023C106.934 39.6277 104.548 40.0454 102.257 40.4133L101.435 40.5389C101.323 40.0544 101.181 39.672 101.016 39.2038L108 35.6359L108.128 35.7064ZM91.532 30.1453C91.6612 30.2989 92.4541 31.9179 92.5986 32.2081L95.1644 37.3597C94.693 37.6662 94.4889 37.7936 94.087 38.1941L93.1839 37.2612L88.503 32.4838C89.6048 31.4307 90.2045 30.8946 91.532 30.1453ZM102.73 30.1525C103.857 30.646 104.987 31.5581 105.866 32.4088L101.296 37.0686C100.955 37.4085 100.613 37.771 100.279 38.1181C99.9473 37.8063 99.5698 37.5496 99.2004 37.2829L102.73 30.1525ZM96.4405 28.8291C97.1476 28.7224 98.3208 28.8725 99.0469 28.9575C98.8898 29.6851 98.7516 30.8088 98.6351 31.5681L97.8042 36.9077C97.5938 36.9511 97.0447 36.821 96.482 36.9168C96.0657 34.2962 95.7072 31.5572 95.2421 28.9566L96.4405 28.8291ZM188.331 33.7954L184.696 35.3611V33.7041L188.331 31.8763V33.7954ZM135.918 34.1335L133.586 35.3312L131.254 34.1335V32.4449L133.586 33.7493L135.918 32.4449V34.1335ZM56.4811 19.1776C60.3572 19.3249 64.5432 20.5434 67.4431 23.2273C70.1064 25.6924 71.0159 28.3283 71.1522 31.8754H60.7185C60.6896 30.4119 59.7052 28.8625 58.4986 28.0779C57.8475 27.654 57.2261 27.4885 56.4811 27.352V19.1776ZM132.268 25.6119C132.268 26.308 132.437 26.8458 132.774 27.2246C133.112 27.5925 133.608 27.7769 134.263 27.7769C134.907 27.7769 135.403 27.5925 135.751 27.2246C136.109 26.8458 136.288 26.308 136.288 25.6119V19.0709H138.696V25.5966C138.696 26.4354 138.558 27.1369 138.282 27.7001C138.006 28.2632 137.643 28.7134 137.193 29.0515C136.753 29.3895 136.267 29.6354 135.735 29.7882C135.213 29.9319 134.708 30.0033 134.216 30.0033C133.215 30.0033 132.391 29.8036 131.747 29.4049C131.102 29.0054 130.627 28.4729 130.321 27.8076C130.014 27.1423 129.86 26.4047 129.86 25.5966V19.0709H132.268V25.6119ZM147.087 25.8424V19.0709H149.511V29.8189H147.087L142.5 23.079V29.8189H140.076V19.0709H142.5L147.087 25.8424ZM153.391 29.8189H150.967V19.0709H153.391V29.8189ZM161.903 21.1599H157.27V23.1098H161.182V25.197H157.27V27.7308H161.903V29.8189H154.847V19.0709H161.903V21.1599ZM46.0509 -0.000732422C48.9301 1.41938 52.1641 3.21735 55.0261 4.74413L55.0252 17.9536C54.1049 17.5161 52.9697 16.8851 52.0485 16.4042L46.0419 13.2612C46.1123 8.90322 46.0383 4.37351 46.0509 -0.000732422ZM65.5682 0.0489851C65.7362 0.313844 65.6297 11.9098 65.6297 13.2648L56.7005 17.9346C56.5957 17.7692 56.64 6.18593 56.6382 4.74322L65.5484 0.030002C65.5547 0.0354258 65.5637 0.0417535 65.5682 0.0489851Z" fill="white"/>
</g>
<defs>
<clipPath id="clip0_6898_244">
<rect width="220" height="64" fill="white"/>
</clipPath>
</defs>
</svg>
