<svg width="248" height="72" viewBox="0 0 248 72" fill="none" xmlns="http://www.w3.org/2000/svg">
<g clip-path="url(#clip0_6898_85)">
<g clip-path="url(#clip1_6898_85)">
<path fill-rule="evenodd" clip-rule="evenodd" d="M40.5595 22.0448L40.5585 32.7279L40.5606 45.4499C40.5606 53.0902 41.2569 60.0533 35.3837 66.0563C31.4102 70.118 25.5716 71.9262 19.9947 71.9516C14.5419 71.977 9.39256 70.6285 5.45775 66.6757C2.80672 64.0112 1.39772 60.8994 0.570034 57.2577C-0.0805084 54.3899 0.00297277 51.8892 0.00399083 48.996L0.00602696 42.7936L0.00500889 22.0438L11.5529 22.0448L11.5539 43.6275L11.5498 49.4902C11.5478 52.7221 11.4307 56.5723 13.928 59.0546C16.9751 62.0424 23.5223 61.9946 26.5347 58.9926C29.1338 56.4024 28.9943 52.9041 28.9923 49.5238L28.9882 43.5889L28.9893 22.0438L40.5595 22.0448ZM152.386 59.2499C153.216 59.2499 154.011 59.3943 154.772 59.6821C155.532 59.9699 156.207 60.3838 156.796 60.9258C157.394 61.4668 157.868 62.1228 158.214 62.8946C158.56 63.6665 158.732 64.536 158.732 65.5021C158.732 66.4702 158.56 67.3397 158.214 68.1116C157.868 68.8834 157.394 69.5394 156.796 70.0804C156.207 70.6214 155.532 71.0363 154.772 71.3241C154.011 71.6119 153.216 71.7563 152.386 71.7563C151.556 71.7563 150.761 71.6119 150 71.3241C149.251 71.0363 148.576 70.6214 147.976 70.0804C147.389 69.5394 146.922 68.8824 146.575 68.1116C146.242 67.3397 146.074 66.4702 146.074 65.5021C146.074 64.535 146.242 63.6665 146.575 62.8946C146.922 62.1228 147.389 61.4668 147.976 60.9258C148.576 60.3838 149.251 59.9699 150 59.6821C150.761 59.3943 151.556 59.2499 152.386 59.2499ZM175.89 59.2499C177.342 59.2499 178.542 59.5957 179.487 60.2872C180.443 60.9777 181.065 61.9387 181.355 63.1713H178.345C178.161 62.7218 177.867 62.377 177.464 62.135C177.06 61.8818 176.536 61.7546 175.89 61.7546C175.233 61.7546 174.651 61.9102 174.144 62.2214C173.637 62.5204 173.232 62.9587 172.933 63.5343C172.645 64.1099 172.5 64.8126 172.5 65.6414C172.5 66.4479 172.645 67.1272 172.933 67.6794C173.221 68.2316 173.607 68.6465 174.092 68.9231C174.587 69.1997 175.135 69.338 175.735 69.338C176.599 69.338 177.274 69.153 177.758 68.7848C178.242 68.4045 178.576 67.9153 178.761 67.3174H175.25V64.9672H181.58V71.5489H179.072L178.864 70.2187C178.507 70.714 178.046 71.0943 177.481 71.3587C176.928 71.6241 176.242 71.7563 175.423 71.7563C174.282 71.7563 173.279 71.5031 172.414 70.9967C171.561 70.478 170.898 69.758 170.426 68.8367C169.953 67.9153 169.717 66.8384 169.717 65.6068C169.717 64.4211 169.947 63.3502 170.408 62.3943C170.881 61.4384 171.573 60.6787 172.484 60.1143C173.407 59.5387 174.542 59.2499 175.89 59.2499ZM237.575 59.2499C239.074 59.2499 240.307 59.6302 241.276 60.3899C242.244 61.1384 242.838 62.2041 243.057 63.5862H240.065C239.95 62.9984 239.667 62.5438 239.217 62.2214C238.779 61.899 238.215 61.7374 237.523 61.7374C236.924 61.7374 236.388 61.8807 235.915 62.1685C235.442 62.4452 235.074 62.8662 234.808 63.4296C234.543 63.9828 234.411 64.6855 234.411 65.5377C234.411 66.3665 234.538 67.0631 234.792 67.6275C235.056 68.1807 235.426 68.6018 235.898 68.8896C236.371 69.1651 236.912 69.3034 237.523 69.3034C238.215 69.3034 238.779 69.159 239.217 68.8713C239.667 68.5723 239.95 68.1513 240.065 67.6102H243.057C242.838 68.8997 242.244 69.9136 241.276 70.6509C240.307 71.3872 239.074 71.7563 237.575 71.7563C236.319 71.7563 235.247 71.4909 234.359 70.9621C233.471 70.4201 232.79 69.6828 232.318 68.7502C231.857 67.8177 231.626 66.7458 231.626 65.5377C231.626 64.3285 231.851 63.2516 232.301 62.3079C232.762 61.3519 233.437 60.6024 234.324 60.0614C235.212 59.5204 236.295 59.2499 237.575 59.2499ZM63.6757 40.8797C69.3778 43.0753 76.6305 44.495 79.7427 50.3648C82.0283 54.6777 81.73 60.7113 78.8967 64.7221C77.3605 66.8943 75.7265 68.2641 73.387 69.516C70.3552 71.0831 67.0434 71.5743 63.6696 71.6058L63.6706 62.4096C65.9235 62.3974 68.2213 61.775 69.2048 59.5133C69.6761 58.4282 69.6598 56.8397 69.1854 55.7648C68.2824 53.7207 65.5876 52.7109 63.6706 51.9187L63.6757 40.8797ZM164.629 59.4574C165.458 59.4574 166.191 59.6018 166.825 59.8896C167.459 60.1774 167.955 60.5913 168.312 61.1333C168.669 61.6621 168.848 62.2957 168.848 63.0329C168.848 63.8384 168.629 64.5126 168.191 65.0536C167.753 65.5946 167.147 65.9811 166.376 66.2119L169.678 71.5489H166.532L163.643 66.6258H162.744V71.5489H160.012V59.4574H164.629ZM194.183 71.5489H191.295L190.448 69.0441H185.952L185.088 71.5489H182.25L186.643 59.4574H189.774L194.183 71.5489ZM202.466 67.0743V59.4574H205.198V71.5489H202.466L197.295 63.9655V71.5489H194.563V59.4574H197.295L202.466 67.0743ZM209.572 71.5489H206.841V59.4574H209.572V71.5489ZM219.395 61.5136L214.087 69.2516H219.413V71.5489H210.957V69.4926L216.23 61.7201H210.991V59.4574H219.395V61.5136ZM231.93 71.5489H229.042L228.195 69.0441H223.698L222.834 71.5489H219.998L224.39 59.4574H227.52L231.93 71.5489ZM247.082 71.5489H244.349V59.4574H247.082V71.5489ZM56.4566 56.1268C57.0135 59.4228 58.5314 61.5299 61.9429 62.2997V71.5428C57.6426 71.3231 53.1458 70.0509 49.8677 67.1699C46.3391 64.0682 45.2783 60.6543 44.982 56.1248L56.4566 56.1268ZM108.707 21.4285C122.543 20.9851 134.126 31.8218 134.586 45.6421C135.047 59.4635 124.212 71.0445 110.376 71.5214C96.5173 71.9984 84.8992 61.1536 84.437 47.3099C83.9769 33.4662 94.8467 21.8729 108.707 21.4285ZM152.386 61.7201C151.833 61.7201 151.285 61.8584 150.743 62.135C150.213 62.3994 149.769 62.8143 149.412 63.3787C149.066 63.9309 148.894 64.6397 148.894 65.5021C148.894 66.3543 149.066 67.0631 149.412 67.6275C149.757 68.1807 150.196 68.5946 150.726 68.8713C151.268 69.1479 151.822 69.2862 152.386 69.2862C152.951 69.2862 153.504 69.1479 154.046 68.8713C154.588 68.5946 155.032 68.1807 155.378 67.6275C155.735 67.0631 155.913 66.3543 155.913 65.5021C155.913 64.6387 155.735 63.9309 155.378 63.3787C155.02 62.8143 154.57 62.3994 154.029 62.135C153.487 61.8584 152.939 61.7201 152.386 61.7201ZM186.713 66.8668H189.705L188.183 62.4624L186.713 66.8668ZM224.459 66.8668H227.451L225.929 62.4624L224.459 66.8668ZM112.975 28.6519C110.51 28.1719 108.494 28.2696 106.048 28.6448C106.151 29.6485 106.381 31.0011 106.553 32.0038C105.37 32.2763 104.71 32.5051 103.581 32.9618L102.047 29.9262C99.7232 30.9706 98.0546 32.2468 96.2832 34.0367L98.6624 36.4601C98.0536 37.3438 97.4662 38.196 96.8961 39.1052C95.8495 38.556 94.7754 38.0201 93.7207 37.4841C92.4105 39.8272 91.876 41.6719 91.4657 44.2804L91.5716 44.315C92.7607 44.4899 93.9498 44.678 95.1358 44.8794C95.0371 45.7397 94.9923 47.2336 95.1389 48.0818C93.9182 48.2719 92.6813 48.4763 91.4606 48.6523C91.8668 51.1814 92.4288 53.2652 93.7553 55.5096C94.8009 54.9492 95.8536 54.397 96.9093 53.854C97.4703 54.7916 98.0271 55.6733 98.7561 56.494L96.3249 58.9641C98.1849 60.8292 99.6469 61.8858 102.041 63.035L103.579 59.9018C104.519 60.3441 105.52 60.7713 106.555 60.935C106.369 62.0557 106.197 63.1794 106.041 64.3041C108.903 64.7516 110.147 64.7221 112.98 64.3041C112.819 63.215 112.664 62.014 112.469 60.938C113.539 60.7174 114.424 60.4163 115.437 59.9953L116.969 63.035C119.142 61.9835 121.099 60.7153 122.734 58.9133L120.361 56.4919C120.919 55.6743 121.625 54.694 122.113 53.8509L125.299 55.4709C126.612 53.0384 127.153 51.3746 127.568 48.635L127.409 48.6289C126.315 48.4987 124.99 48.2526 123.882 48.0777C124.027 47.2733 123.984 45.697 123.888 44.8774C125.109 44.6709 126.332 44.4787 127.558 44.3018C127.197 41.6892 126.575 39.818 125.313 37.5157C124.259 38.0831 123.1 38.6475 122.027 39.1957C121.525 38.1248 121.019 37.4445 120.26 36.5536C121.088 35.7289 121.917 34.8665 122.737 34.0296C120.959 32.1777 119.279 31.0184 116.976 29.9292L115.446 33.0502C114.355 32.5194 113.64 32.2804 112.47 31.9997C112.655 30.8872 112.823 29.7696 112.975 28.6519ZM162.744 64.3113H164.577C165.003 64.3113 165.321 64.2482 165.529 64.1211C165.748 63.9828 165.897 63.816 165.978 63.6207C166.058 63.4245 166.099 63.2282 166.099 63.0329C166.099 62.8367 166.058 62.6465 165.978 62.4624C165.897 62.2672 165.748 62.1055 165.529 61.9794C165.321 61.8523 165.003 61.7892 164.577 61.7892H162.744V64.3113ZM108.784 51.3635C109.33 51.5119 109.71 51.4885 110.267 51.4336C110.665 54.3157 111.163 57.4906 111.652 60.3584C111.225 60.4224 110.778 60.4723 110.349 60.5262C109.265 60.5801 108.431 60.5272 107.368 60.3533C107.544 59.5875 107.715 58.2167 107.841 57.4031C108.146 55.3885 108.459 53.375 108.784 51.3635ZM105.978 50.076C106.362 50.4187 106.775 50.7075 107.192 51.0106L103.211 59.0455C102.715 58.8004 102.243 58.5004 101.772 58.2136C100.937 57.638 100.413 57.1916 99.6825 56.495L105.978 50.076ZM112.934 50.0079C113.121 50.1218 114.5 51.5557 114.713 51.7733L119.249 56.4055C118.653 57.0035 118.019 57.5638 117.353 58.0824C116.803 58.478 116.409 58.7211 115.818 59.0455L111.737 50.9201C112.214 50.6435 112.544 50.3953 112.934 50.0079ZM247.756 57.0218L243.658 58.7831V56.918L247.756 54.8628V57.0218ZM104.634 47.4014C104.785 47.6628 105.026 48.4835 105.151 48.8394C103.764 49.6092 102.095 50.378 100.669 51.1306C99.766 51.6055 98.0943 52.5014 97.2076 52.8635L97.1017 52.7302C96.4746 51.4519 96.103 50.1543 95.8902 48.754C98.4822 48.2485 101.712 47.8062 104.343 47.3902C104.49 47.3567 104.486 47.3648 104.634 47.4014ZM114.336 47.2296C117.091 47.735 120.358 48.2333 123.136 48.634C122.946 50.0404 122.703 50.8479 122.161 52.1557L121.841 52.8075C119.261 51.4265 116.498 50.0974 113.883 48.7397C114.086 48.1682 114.211 47.8214 114.336 47.2296ZM150.501 40.2482C151.285 40.2482 152 40.3875 152.645 40.6641C153.303 40.9285 153.833 41.3262 154.236 41.856C154.64 42.3848 154.847 43.0418 154.858 43.8248H151.918C151.907 43.5136 151.775 43.2207 151.521 42.9441C151.268 42.6675 150.893 42.5292 150.397 42.5292C150.04 42.5404 149.735 42.6441 149.481 42.8394C149.239 43.0235 149.119 43.2889 149.119 43.6346C149.119 43.9336 149.245 44.1929 149.498 44.4116C149.752 44.6302 150.109 44.8326 150.57 45.0167C151.043 45.2007 151.59 45.396 152.214 45.6035C152.686 45.7652 153.1 45.9553 153.458 46.174C153.826 46.3804 154.133 46.6285 154.375 46.9163C154.616 47.1929 154.801 47.5102 154.929 47.8672C155.055 48.2241 155.118 48.6268 155.118 49.0753C155.118 49.8126 154.928 50.4574 154.548 51.0106C154.178 51.5628 153.665 51.995 153.009 52.3062C152.351 52.6052 151.597 52.7546 150.743 52.7546C149.89 52.7546 149.113 52.6174 148.409 52.3407C147.718 52.0529 147.158 51.6258 146.731 51.0614C146.316 50.4858 146.092 49.7607 146.057 48.8862H148.927C148.973 49.2889 149.135 49.6519 149.412 49.9743C149.7 50.2967 150.133 50.4584 150.709 50.4584C151.205 50.4584 151.573 50.3475 151.815 50.1289C152.069 49.9102 152.196 49.6224 152.196 49.2665C152.196 49.1048 152.168 48.9543 152.11 48.816C152.064 48.6777 151.965 48.5455 151.815 48.4194C151.666 48.2811 151.435 48.1428 151.123 48.0045C150.824 47.8672 150.421 47.7167 149.914 47.556C148.968 47.257 148.23 46.9052 147.699 46.5024C147.169 46.0997 146.795 45.6665 146.575 45.2058C146.369 44.7462 146.265 44.2733 146.265 43.7902C146.276 43.0072 146.472 42.3563 146.852 41.8377C147.233 41.3079 147.74 40.9113 148.374 40.6458C149.009 40.3814 149.717 40.2482 150.501 40.2482ZM186.903 40.2482C187.733 40.2482 188.528 40.3926 189.289 40.6804C190.05 40.9682 190.724 41.3831 191.312 41.9241C191.912 42.4652 192.385 43.1221 192.73 43.8929C193.077 44.6648 193.249 45.5353 193.249 46.5024C193.249 47.4696 193.077 48.339 192.73 49.1099C192.385 49.8818 191.912 50.5387 191.312 51.0797C190.724 51.6207 190.05 52.0346 189.289 52.3235C188.528 52.6113 187.733 52.7546 186.903 52.7546C186.073 52.7546 185.277 52.6113 184.517 52.3235C183.767 52.0346 183.092 51.6207 182.494 51.0797C181.905 50.5387 181.438 49.8818 181.093 49.1099C180.758 48.339 180.591 47.4696 180.591 46.5024C180.591 45.5353 180.758 44.6648 181.093 43.8929C181.438 43.1221 181.905 42.4652 182.494 41.9241C183.092 41.3831 183.767 40.9682 184.517 40.6804C185.277 40.3926 186.073 40.2482 186.903 40.2482ZM221.108 40.2482C222.606 40.2482 223.84 40.6285 224.809 41.3892C225.777 42.1377 226.371 43.2024 226.59 44.5845H223.599C223.483 43.9977 223.2 43.5421 222.751 43.2197C222.312 42.8974 221.748 42.7367 221.057 42.7367C220.457 42.7367 219.921 42.8801 219.448 43.1689C218.976 43.4445 218.606 43.8645 218.342 44.4289C218.076 44.9811 217.944 45.6838 217.944 46.536C217.944 47.3648 218.071 48.0624 218.324 48.6268C218.589 49.1791 218.959 49.6001 219.431 49.8879C219.903 50.1645 220.446 50.3018 221.057 50.3018C221.748 50.3018 222.312 50.1574 222.751 49.8696C223.2 49.5706 223.483 49.1506 223.599 48.6096H226.59C226.371 49.8991 225.777 50.9129 224.809 51.6492C223.84 52.3865 222.606 52.7546 221.108 52.7546C219.852 52.7546 218.78 52.4902 217.892 51.9604C217.004 51.4194 216.324 50.6821 215.851 49.7496C215.389 48.817 215.16 47.7452 215.16 46.536C215.16 45.3268 215.384 44.2509 215.834 43.3062C216.295 42.3513 216.969 41.6028 217.857 41.0607C218.745 40.5197 219.828 40.2482 221.108 40.2482ZM159.135 52.5472H156.404V40.4567H159.135V52.5472ZM165.58 40.4567C166.41 40.4567 167.16 40.6062 167.828 40.9052C168.496 41.2041 169.022 41.6374 169.401 42.2007C169.793 42.7652 169.99 43.4394 169.99 44.2224C169.99 44.9933 169.801 45.6675 169.42 46.2431C169.051 46.8075 168.531 47.2448 167.863 47.556C167.206 47.8672 166.445 48.0218 165.58 48.0218H163.505V52.5472H160.773V40.4567H165.58ZM173.741 44.5499L177.477 40.4567H180.832L176.595 45.0513L181.316 52.5472H178.152L174.796 46.9682L173.741 48.1265V52.5472H171.009V40.4567H173.741V44.5499ZM198.977 49.8014L202.142 40.4567H207.857L210.294 44.7574L212.715 40.4567H215.759L211.626 47.5214V52.5472H208.911V47.5214L204.916 40.7211L200.655 52.5472H197.265L192.925 40.4567H195.813L198.977 49.8014ZM230.599 44.9821H235.458V40.4567H238.174V52.5472H235.458V47.3302H230.599V52.5472H227.867V40.4567H230.599V44.9821ZM61.8747 21.6014C61.9918 21.8231 61.9409 29.7523 61.9409 30.7041C60.312 30.8974 58.343 31.6235 57.6436 33.1845C55.972 36.9167 59.2776 38.8641 61.9409 40.1699L61.9399 51.3014C58.8979 50.2916 56.7671 49.6377 53.8778 48.0777C49.3424 45.4763 46.0296 41.8336 45.8321 36.3848C45.4829 26.7329 52.9565 21.9716 61.8238 21.579L61.8747 21.6014ZM186.903 42.7184C186.349 42.7184 185.802 42.8577 185.26 43.1333C184.73 43.3987 184.286 43.8126 183.928 44.377C183.582 44.9302 183.41 45.639 183.41 46.5024C183.41 47.3546 183.582 48.0624 183.928 48.6268C184.274 49.1791 184.712 49.594 185.243 49.8696C185.784 50.1462 186.338 50.2855 186.903 50.2855C187.468 50.2855 188.021 50.1462 188.563 49.8696C189.105 49.594 189.549 49.1791 189.894 48.6268C190.251 48.0624 190.431 47.3546 190.431 46.5024C190.431 45.639 190.251 44.9302 189.894 44.377C189.537 43.8126 189.087 43.3987 188.545 43.1333C188.003 42.8577 187.456 42.7184 186.903 42.7184ZM109.239 43.4068C110.932 43.2563 112.429 44.5051 112.583 46.1963C112.737 47.8885 111.491 49.3865 109.797 49.5441C108.1 49.7018 106.594 48.4519 106.44 46.7557C106.286 45.0594 107.54 43.5584 109.239 43.4068ZM111.246 46.0387C111.004 45.0818 110.029 44.5021 109.073 44.7482C108.124 44.9933 107.551 45.9584 107.789 46.9072C108.029 47.856 108.992 48.4346 109.943 48.2018C110.903 47.9658 111.487 46.9957 111.246 46.0387ZM105.151 44.2052C104.951 44.7421 104.827 45.1682 104.672 45.7184L103.882 45.5933C101.321 45.1326 98.4751 44.6984 95.8973 44.315C96.0806 42.7316 96.4949 41.5641 97.1811 40.1455L105.151 44.2052ZM163.505 45.6899H165.511C166.157 45.6899 166.601 45.5455 166.843 45.2577C167.097 44.9587 167.224 44.6129 167.224 44.2224C167.224 43.8533 167.097 43.5248 166.843 43.237C166.601 42.938 166.157 42.7885 165.511 42.7885H163.505V45.6899ZM121.889 40.1699C122.5 41.3363 122.958 42.9136 123.128 44.2153C120.544 44.5814 117.854 45.0513 115.272 45.4651L114.345 45.6065C114.218 45.0614 114.059 44.6313 113.872 44.1045L121.746 40.0906L121.889 40.1699ZM103.182 33.9136C103.327 34.0865 104.221 35.9079 104.384 36.2343L107.276 42.0299C106.745 42.3746 106.515 42.518 106.062 42.9685L105.044 41.919L99.767 36.5445C101.009 35.3597 101.685 34.7567 103.182 33.9136ZM115.805 33.9218C117.075 34.477 118.349 35.5031 119.34 36.4601L114.188 41.7024C113.804 42.0848 113.418 42.4926 113.042 42.8831C112.668 42.5323 112.242 42.2435 111.826 41.9435L115.805 33.9218ZM108.715 32.4329C109.512 32.3129 110.834 32.4818 111.653 32.5774C111.476 33.396 111.32 34.6601 111.189 35.5143L110.252 41.5214C110.015 41.5702 109.396 41.4238 108.762 41.5316C108.292 38.5835 107.888 35.5021 107.364 32.5763L108.715 32.4329ZM212.301 38.0201L208.203 39.7814V37.9174L212.301 35.8611V38.0201ZM153.216 38.4004L150.588 39.7479L147.959 38.4004V36.5007L150.588 37.9682L153.216 36.5007V38.4004ZM63.6696 21.575C68.0391 21.7407 72.7578 23.1116 76.0268 26.1309C79.0291 28.9041 80.0543 31.8696 80.208 35.8601H68.4463C68.4137 34.2136 67.304 32.4706 65.9439 31.5879C65.2099 31.1109 64.5095 30.9248 63.6696 30.7712V21.575ZM149.102 28.8136C149.102 29.5967 149.293 30.2018 149.672 30.6279C150.053 31.0418 150.613 31.2492 151.351 31.2492C152.077 31.2492 152.636 31.0418 153.028 30.6279C153.432 30.2018 153.634 29.5967 153.634 28.8136V21.455H156.348V28.7963C156.348 29.7401 156.193 30.5292 155.882 31.1628C155.57 31.7963 155.161 32.3028 154.654 32.6831C154.158 33.0635 153.61 33.3401 153.011 33.5119C152.422 33.6736 151.852 33.754 151.298 33.754C150.169 33.754 149.241 33.5292 148.515 33.0807C147.788 32.6313 147.252 32.0323 146.907 31.2838C146.561 30.5353 146.388 29.7055 146.388 28.7963V21.455H149.102V28.8136ZM165.807 29.0729V21.455H168.539V33.5465H165.807L160.636 25.9641V33.5465H157.903V21.455H160.636L165.807 29.0729ZM172.914 33.5465H170.181V21.455H172.914V33.5465ZM182.509 23.8051H177.286V25.9987H181.697V28.3468H177.286V31.1974H182.509V33.5465H174.555V21.455H182.509V23.8051ZM51.9119 -0.000614166C55.1575 1.59701 58.8032 3.61972 62.0295 5.33735L62.0284 20.198C60.991 19.7058 59.7113 18.996 58.6729 18.455L51.9018 14.919C51.9812 10.0163 51.8977 4.9204 51.9119 -0.000614166ZM73.9133 0.055318C74.1027 0.353284 73.9825 13.3987 73.9825 14.9231L63.9169 20.1767C63.7988 19.9906 63.8487 6.95939 63.8467 5.33634L73.8909 0.0339621C73.898 0.0400638 73.9082 0.0471824 73.9133 0.055318Z" fill="#1C1F2A"/>
</g>
</g>
<defs>
<clipPath id="clip0_6898_85">
<rect width="248" height="72" fill="white"/>
</clipPath>
<clipPath id="clip1_6898_85">
<rect width="248" height="72" fill="white"/>
</clipPath>
</defs>
</svg>
