<svg width="16" height="16" viewBox="0 0 16 16" fill="none" xmlns="http://www.w3.org/2000/svg">
<g clip-path="url(#clip0_6471_5435)">
<path d="M3.33301 9.52422C2.09877 10.0687 1.33301 10.8274 1.33301 11.6666C1.33301 13.3235 4.31778 14.6666 7.99967 14.6666C11.6816 14.6666 14.6663 13.3235 14.6663 11.6666C14.6663 10.8274 13.9006 10.0687 12.6663 9.52422M11.9997 5.33331C11.9997 8.04245 8.99967 9.33331 7.99967 11.3333C6.99967 9.33331 3.99967 8.04245 3.99967 5.33331C3.99967 3.12417 5.79054 1.33331 7.99967 1.33331C10.2088 1.33331 11.9997 3.12417 11.9997 5.33331ZM8.66634 5.33331C8.66634 5.7015 8.36786 5.99998 7.99967 5.99998C7.63148 5.99998 7.33301 5.7015 7.33301 5.33331C7.33301 4.96512 7.63148 4.66665 7.99967 4.66665C8.36786 4.66665 8.66634 4.96512 8.66634 5.33331Z" stroke="black" stroke-width="1.2"/>
</g>
<defs>
<clipPath id="clip0_6471_5435">
<rect width="16" height="16" fill="white"/>
</clipPath>
</defs>
</svg>
