<svg width="220" height="64" viewBox="0 0 220 64" fill="none" xmlns="http://www.w3.org/2000/svg"><g clip-path="url(#clip0_6898_244)"><path fill-rule="evenodd" clip-rule="evenodd" d="M35.98 19.595v9.496L35.98 40.4c0 6.791.618 12.98-4.592 18.317-3.525 3.61-8.704 5.217-13.652 5.24-4.837.022-9.405-1.176-12.895-4.69C2.49 56.9 1.24 54.133.506 50.895c-.577-2.549-.503-4.771-.502-7.343l.001-5.513V19.594l10.243.001.001 19.185-.003 5.211c-.002 2.873-.106 6.295 2.11 8.502 2.703 2.656 8.51 2.613 11.183-.055 2.305-2.303 2.182-5.412 2.18-8.417l-.004-5.276.001-19.15H35.98zm99.201 33.071a5.92 5.92 0 012.117.385 5.494 5.494 0 011.795 1.105c.531.481.951 1.064 1.258 1.75.307.686.46 1.46.46 2.318 0 .86-.153 1.633-.46 2.32a5.189 5.189 0 01-1.258 1.75 5.51 5.51 0 01-1.795 1.105 5.92 5.92 0 01-2.117.384 5.914 5.914 0 01-2.116-.384 5.72 5.72 0 01-1.796-1.105 5.297 5.297 0 01-1.242-1.75c-.297-.687-.446-1.46-.446-2.32 0-.86.149-1.632.446-2.318a5.288 5.288 0 011.242-1.75 5.704 5.704 0 011.796-1.105 5.914 5.914 0 012.116-.385zm20.85 0c1.289 0 2.353.308 3.192.922.848.614 1.4 1.468 1.656 2.564h-2.67a1.866 1.866 0 00-.782-.921c-.357-.225-.822-.338-1.396-.338-.582 0-1.099.138-1.549.415-.45.266-.808.655-1.074 1.167-.255.511-.383 1.136-.383 1.873 0 .717.128 1.32.383 1.811.256.491.598.86 1.028 1.106.44.246.926.369 1.458.369.767 0 1.365-.165 1.794-.492a2.59 2.59 0 00.89-1.305h-3.114v-2.089h5.615v5.85h-2.225l-.184-1.182c-.317.44-.726.779-1.227 1.014-.491.236-1.099.353-1.826.353-1.012 0-1.902-.225-2.669-.675a4.707 4.707 0 01-1.764-1.92c-.419-.819-.629-1.776-.629-2.871 0-1.054.205-2.006.614-2.856a4.886 4.886 0 011.841-2.026c.818-.512 1.825-.769 3.021-.769zm54.721 0c1.329 0 2.424.339 3.283 1.014.859.665 1.386 1.612 1.58 2.84h-2.654c-.102-.522-.353-.926-.752-1.212-.389-.287-.889-.43-1.503-.43-.531 0-1.007.127-1.427.383-.419.246-.746.62-.982 1.12-.234.492-.352 1.117-.352 1.874 0 .737.113 1.356.338 1.858.235.492.563.866.982 1.122.419.245.899.368 1.441.368.614 0 1.114-.129 1.503-.384.399-.266.65-.64.752-1.121h2.654c-.194 1.146-.721 2.047-1.58 2.703-.859.654-1.954.982-3.283.982-1.114 0-2.065-.236-2.853-.706a4.803 4.803 0 01-1.811-1.966c-.409-.829-.613-1.782-.613-2.855 0-1.075.2-2.033.599-2.871a4.645 4.645 0 011.794-1.997c.788-.481 1.749-.722 2.884-.722zM56.486 36.337c5.059 1.952 11.493 3.214 14.254 8.431 2.027 3.834 1.762 9.197-.751 12.763-1.363 1.93-2.812 3.148-4.888 4.26-2.69 1.394-5.627 1.83-8.62 1.858l.001-8.174c1.999-.01 4.037-.564 4.91-2.575.417-.964.403-2.376-.018-3.331-.8-1.817-3.192-2.715-4.892-3.42l.005-9.812zm89.556 16.514c.736 0 1.385.128 1.948.384a3.048 3.048 0 011.319 1.105c.317.47.475 1.034.475 1.69 0 .715-.194 1.314-.582 1.795-.389.481-.926.825-1.611 1.03l2.93 4.744h-2.791l-2.563-4.376h-.797v4.376h-2.424V52.85h4.096zm26.217 10.748h-2.562l-.751-2.227h-3.988l-.767 2.227h-2.517l3.897-10.748h2.777l3.911 10.748zm7.348-3.978v-6.77h2.423v10.748h-2.423l-4.587-6.741v6.74h-2.424V52.852h2.424l4.587 6.77zm6.304 3.978h-2.423V52.85h2.423v10.748zm8.714-8.92l-4.709 6.878h4.724v2.042h-7.501V61.77l4.678-6.909h-4.647v-2.011h7.455v1.828zm11.119 8.92h-2.562l-.751-2.227h-3.989l-.766 2.227h-2.516l3.896-10.748h2.776l3.912 10.748zm13.441 0h-2.424V52.85h2.424v10.748zM50.082 49.89c.495 2.93 1.841 4.803 4.867 5.487v8.216c-3.814-.195-7.803-1.326-10.712-3.887-3.13-2.757-4.07-5.791-4.334-9.818l10.18.002zm46.351-30.843c12.275-.394 22.549 9.239 22.958 21.524.409 12.285-9.203 22.58-21.477 23.003-12.294.424-22.6-9.215-23.01-21.52-.408-12.307 9.234-22.612 21.53-23.007zm38.748 35.815c-.491 0-.977.123-1.457.369-.471.235-.864.604-1.181 1.105-.307.491-.46 1.121-.46 1.888 0 .757.153 1.388.46 1.89.306.49.695.859 1.166 1.105.48.246.971.368 1.472.368s.992-.122 1.473-.368c.48-.246.874-.614 1.181-1.106.317-.502.475-1.132.475-1.89 0-.767-.158-1.396-.475-1.887-.317-.501-.716-.87-1.197-1.105a3.167 3.167 0 00-1.457-.369zm30.451 4.575h2.654l-1.35-3.915-1.304 3.915zm33.485 0h2.654l-1.35-3.915-1.304 3.915zM100.22 25.468c-2.187-.427-3.975-.34-6.145-.006.091.892.296 2.094.448 2.986-1.05.242-1.635.445-2.637.851l-1.36-2.698c-2.062.928-3.542 2.063-5.114 3.654l2.111 2.154c-.54.785-1.061 1.543-1.567 2.35-.928-.487-1.881-.964-2.817-1.44-1.162 2.083-1.636 3.722-2 6.041l.094.03c1.055.156 2.11.324 3.162.503-.088.764-.128 2.092.002 2.846-1.082.17-2.18.35-3.263.507.36 2.248.86 4.1 2.036 6.096.928-.498 1.861-.99 2.798-1.472.498.833.992 1.617 1.638 2.347l-2.156 2.195c1.65 1.658 2.946 2.597 5.07 3.619l1.364-2.785c.835.393 1.722.773 2.641.918a111.98 111.98 0 00-.456 2.995c2.539.398 3.642.372 6.156 0-.144-.968-.281-2.036-.454-2.992.949-.196 1.734-.464 2.633-.838l1.359 2.702c1.927-.935 3.664-2.062 5.114-3.664l-2.105-2.152c.495-.727 1.121-1.598 1.554-2.348l2.826 1.44c1.165-2.162 1.645-3.64 2.013-6.076l-.141-.006c-.97-.115-2.146-.334-3.129-.49.129-.715.09-2.116.006-2.844 1.082-.184 2.168-.355 3.255-.512-.32-2.322-.872-3.985-1.991-6.032-.936.505-1.963 1.006-2.915 1.493-.446-.952-.894-1.556-1.568-2.348.735-.733 1.47-1.5 2.197-2.244-1.577-1.646-3.067-2.676-5.11-3.644l-1.357 2.774c-.968-.472-1.602-.684-2.64-.934.164-.989.313-1.982.448-2.976zm44.15 31.697h1.626c.378 0 .66-.056.844-.169a.967.967 0 00.398-.444c.072-.175.108-.35.108-.523 0-.174-.036-.343-.108-.507a.888.888 0 00-.398-.43c-.184-.112-.466-.168-.844-.168h-1.626v2.241zM96.502 45.656c.484.132.822.111 1.316.063.353 2.561.794 5.383 1.228 7.933-.378.057-.775.1-1.156.149-.962.048-1.701 0-2.644-.154.156-.68.308-1.899.42-2.622.27-1.79.548-3.58.836-5.369zm-2.49-1.144c.341.304.708.561 1.077.83l-3.53 7.143c-.44-.218-.86-.485-1.278-.74-.74-.511-1.205-.908-1.853-1.527l5.585-5.706zm6.171-.06c.166.1 1.39 1.375 1.579 1.569l4.023 4.117a17.826 17.826 0 01-1.682 1.49c-.487.352-.837.568-1.361.857l-3.62-7.223a4.783 4.783 0 001.061-.81zm119.6 6.234l-3.635 1.566v-1.658l3.635-1.827v1.919zM92.821 42.134c.133.233.347.962.458 1.279-1.23.684-2.71 1.367-3.976 2.036-.8.422-2.284 1.219-3.07 1.54l-.094-.118c-.557-1.136-.886-2.29-1.075-3.534 2.3-.45 5.164-.843 7.499-1.213.13-.03.126-.022.258.01zm8.607-.152c2.443.449 5.341.892 7.805 1.248-.168 1.25-.384 1.968-.864 3.13l-.285.58c-2.288-1.228-4.739-2.41-7.058-3.616.179-.508.29-.816.402-1.342zm32.081-6.206c.695 0 1.329.124 1.902.37a3.268 3.268 0 011.412 1.06c.357.47.541 1.053.551 1.75h-2.608c-.01-.277-.127-.538-.352-.784-.225-.245-.557-.368-.997-.368-.317.01-.588.102-.813.275-.215.164-.321.4-.321.707 0 .266.112.496.336.69.225.195.542.375.951.539.42.163.905.337 1.458.521.419.144.787.313 1.104.507.327.184.598.404.813.66.214.246.379.528.492.845.112.318.168.676.168 1.074 0 .656-.169 1.229-.506 1.72-.328.491-.783.876-1.366 1.152-.583.266-1.252.399-2.009.399-.757 0-1.447-.122-2.071-.368a3.52 3.52 0 01-1.488-1.137c-.369-.512-.567-1.156-.598-1.934h2.546c.04.358.184.68.43.967.255.287.639.43 1.15.43.44 0 .767-.098.982-.292a.964.964 0 00.338-.767c0-.144-.026-.277-.077-.4a.808.808 0 00-.261-.353c-.133-.123-.338-.246-.614-.369a9.647 9.647 0 00-1.073-.398c-.839-.266-1.494-.579-1.964-.937-.471-.358-.802-.743-.997-1.152a3.038 3.038 0 01-.276-1.258c.01-.697.184-1.275.521-1.736a3.098 3.098 0 011.35-1.06c.563-.235 1.192-.353 1.887-.353zm32.292 0a5.93 5.93 0 012.117.384 5.495 5.495 0 011.794 1.106 5.17 5.17 0 011.258 1.75c.308.686.46 1.46.46 2.32 0 .859-.152 1.632-.46 2.317a5.165 5.165 0 01-1.258 1.751 5.51 5.51 0 01-1.794 1.105 5.927 5.927 0 01-2.117.384 5.923 5.923 0 01-2.117-.383 5.717 5.717 0 01-1.794-1.106 5.266 5.266 0 01-1.243-1.75c-.297-.686-.445-1.459-.445-2.319 0-.86.148-1.633.445-2.32a5.271 5.271 0 011.243-1.75 5.7 5.7 0 011.794-1.105 5.926 5.926 0 012.117-.384zm30.343 0c1.329 0 2.424.338 3.283 1.014.859.666 1.386 1.612 1.58 2.84h-2.653c-.103-.521-.354-.926-.752-1.213-.39-.286-.89-.429-1.503-.429-.532 0-1.008.127-1.427.384-.419.245-.747.618-.982 1.12-.235.491-.353 1.116-.353 1.873 0 .737.113 1.357.338 1.859.235.49.563.865.982 1.12.419.246.9.368 1.442.368.613 0 1.113-.128 1.503-.384.398-.266.649-.639.752-1.12h2.653c-.194 1.147-.721 2.048-1.58 2.702-.859.656-1.954.983-3.283.983-1.114 0-2.065-.235-2.853-.706a4.802 4.802 0 01-1.811-1.965c-.409-.83-.612-1.782-.612-2.857 0-1.075.199-2.031.598-2.87a4.659 4.659 0 011.794-1.997c.788-.48 1.749-.722 2.884-.722zm-54.976 10.932h-2.423V35.961h2.423v10.747zm5.717-10.747c.737 0 1.402.133 1.994.399.594.266 1.06.65 1.396 1.152.348.501.522 1.1.522 1.797 0 .685-.167 1.284-.505 1.796-.327.502-.789.89-1.381 1.167-.584.276-1.258.414-2.026.414h-1.84v4.022h-2.423V35.961h4.263zm7.24 3.639l3.314-3.639h2.977l-3.759 4.084 4.188 6.663h-2.807l-2.977-4.959-.936 1.03v3.93h-2.423V35.96h2.423V39.6zm22.387 4.668l2.808-8.307h5.069l2.162 3.823 2.148-3.823h2.7l-3.667 6.28v4.467h-2.407v-4.467l-3.545-6.045L178 46.708h-3.007l-3.85-10.747h2.562l2.807 8.307zm28.052-4.284h4.31V35.96h2.409v10.747h-2.409v-4.637h-4.31v4.637h-2.424V35.961h2.424v4.023zM54.889 19.2c.104.197.059 7.245.059 8.091-1.445.172-3.192.818-3.813 2.205-1.482 3.318 1.45 5.049 3.813 6.21l-.001 9.894c-2.699-.898-4.59-1.479-7.152-2.865-4.024-2.313-6.962-5.55-7.138-10.394-.31-8.58 6.32-12.812 14.187-13.16l.045.02zM165.8 37.971c-.491 0-.976.125-1.458.37-.469.235-.864.603-1.181 1.105-.307.492-.46 1.122-.46 1.89 0 .757.153 1.386.46 1.888.307.49.695.86 1.166 1.104a3.2 3.2 0 001.473.37c.501 0 .992-.124 1.473-.37.48-.245.874-.614 1.18-1.104.317-.502.476-1.131.476-1.889 0-.767-.159-1.397-.476-1.889-.317-.502-.716-.87-1.196-1.105a3.184 3.184 0 00-1.457-.37zm-68.895.613a2.739 2.739 0 01.495 5.455 2.74 2.74 0 11-.495-5.455zm1.78 2.34a1.582 1.582 0 00-1.928-1.148 1.582 1.582 0 00.771 3.07 1.582 1.582 0 001.157-1.923zm-5.407-1.63c-.177.477-.287.855-.425 1.344l-.7-.11c-2.273-.41-4.797-.796-7.084-1.137.163-1.408.53-2.445 1.14-3.706l7.069 3.608zm51.766 1.32h1.78c.572 0 .966-.13 1.181-.385.225-.266.338-.573.338-.92 0-.328-.113-.62-.338-.876-.215-.266-.609-.399-1.181-.399h-1.78v2.58zm-36.917-4.908c.542 1.037.948 2.44 1.099 3.596-2.293.326-4.679.743-6.97 1.111l-.822.126c-.112-.485-.254-.867-.419-1.335L108 35.636l.128.07zm-16.596-5.56c.13.153.922 1.772 1.067 2.062l2.565 5.152c-.471.306-.675.434-1.077.834l-.903-.933-4.681-4.777c1.102-1.053 1.701-1.59 3.029-2.339zm11.198.006c1.127.494 2.257 1.406 3.136 2.257l-4.57 4.66c-.341.34-.683.702-1.017 1.05-.332-.313-.71-.57-1.079-.836l3.53-7.13zm-6.29-1.323c.708-.107 1.88.043 2.607.128-.157.728-.295 1.852-.412 2.611l-.83 5.34c-.211.043-.76-.087-1.323.009-.416-2.62-.775-5.36-1.24-7.96l1.198-.128zm91.891 4.966l-3.635 1.566v-1.657l3.635-1.828v1.92zm-52.413.338l-2.332 1.198-2.332-1.198v-1.688l2.332 1.304 2.332-1.304v1.688zM56.481 19.178c3.876.147 8.062 1.365 10.962 4.05 2.663 2.464 3.573 5.1 3.71 8.647H60.717c-.028-1.463-1.013-3.012-2.22-3.797-.65-.424-1.272-.59-2.017-.726v-8.174zm75.787 6.434c0 .696.169 1.234.506 1.613.338.367.834.552 1.489.552.644 0 1.14-.184 1.488-.552.358-.38.537-.917.537-1.613V19.07h2.408v6.526c0 .838-.138 1.54-.414 2.103a3.678 3.678 0 01-1.089 1.352 4.34 4.34 0 01-1.458.736 5.705 5.705 0 01-1.519.215c-1.001 0-1.825-.2-2.469-.598a3.635 3.635 0 01-1.426-1.597c-.307-.666-.461-1.403-.461-2.211V19.07h2.408v6.54zm14.819.23v-6.771h2.424v10.748h-2.424l-4.587-6.74v6.74h-2.424V19.07h2.424l4.587 6.771zm6.304 3.977h-2.424V19.07h2.424v10.748zm8.512-8.66h-4.633v1.95h3.912v2.088h-3.912v2.534h4.633v2.088h-7.056V19.07h7.056v2.089zM46.051 0c2.88 1.42 6.113 3.218 8.975 4.745v13.21c-.921-.438-2.056-1.069-2.978-1.55l-6.006-3.143c.07-4.358-.004-8.887.009-13.262zm19.517.05c.168.265.062 11.86.062 13.216l-8.93 4.67c-.104-.166-.06-11.75-.062-13.192L65.548.03c.007.005.016.012.02.019z" fill="#fff"/></g><defs><clipPath id="clip0_6898_244"><path fill="#fff" d="M0 0h220v64H0z"/></clipPath></defs></svg>