<svg width="248" height="72" viewBox="0 0 248 72" fill="none" xmlns="http://www.w3.org/2000/svg"><g clip-path="url(#clip0_6898_85)"><g clip-path="url(#clip1_6898_85)"><path fill-rule="evenodd" clip-rule="evenodd" d="M40.56 22.045l-.002 10.683.003 12.722c0 7.64.696 14.603-5.177 20.606-3.974 4.062-9.812 5.87-15.39 5.896-5.452.025-10.601-1.323-14.536-5.276-2.651-2.665-4.06-5.777-4.888-9.418-.65-2.868-.567-5.369-.566-8.262l.002-6.202-.001-20.75h11.548v21.583l-.003 5.863c-.002 3.232-.12 7.082 2.378 9.565 3.047 2.987 9.594 2.94 12.607-.062 2.599-2.59 2.46-6.089 2.457-9.47l-.004-5.934.001-21.545h11.57zM152.385 59.25c.83 0 1.625.144 2.386.432.76.288 1.435.702 2.024 1.244a5.845 5.845 0 011.418 1.969c.346.771.518 1.641.518 2.607 0 .968-.172 1.838-.518 2.61a5.845 5.845 0 01-1.418 1.968 6.22 6.22 0 01-2.024 1.244 6.688 6.688 0 01-2.386.432c-.83 0-1.625-.144-2.386-.432a6.46 6.46 0 01-2.024-1.244 5.98 5.98 0 01-1.401-1.968c-.333-.772-.501-1.642-.501-2.61 0-.967.168-1.835.501-2.607a5.97 5.97 0 011.401-1.97A6.44 6.44 0 01150 59.683a6.688 6.688 0 012.386-.432zm23.504 0c1.452 0 2.652.346 3.597 1.037.956.69 1.578 1.652 1.868 2.884h-3.01a2.103 2.103 0 00-.881-1.036c-.404-.253-.928-.38-1.574-.38-.657 0-1.239.155-1.746.466-.507.3-.912.738-1.211 1.313-.288.576-.433 1.279-.433 2.107 0 .807.145 1.486.433 2.038.288.553.674.968 1.159 1.244a3.311 3.311 0 001.643.415c.864 0 1.539-.185 2.023-.553.484-.38.818-.87 1.003-1.468h-3.511v-2.35h6.33v6.582h-2.508l-.208-1.33a3.507 3.507 0 01-1.383 1.14c-.553.265-1.239.397-2.058.397-1.141 0-2.144-.253-3.009-.76a5.298 5.298 0 01-1.988-2.16c-.473-.92-.709-1.998-.709-3.23 0-1.185.23-2.256.691-3.212a5.505 5.505 0 012.076-2.28c.923-.575 2.058-.864 3.406-.864zm61.685 0c1.499 0 2.732.38 3.701 1.14.968.748 1.562 1.814 1.781 3.196h-2.992c-.115-.588-.398-1.042-.848-1.365-.438-.322-1.002-.484-1.694-.484-.599 0-1.135.144-1.608.431-.473.277-.841.698-1.107 1.262-.265.553-.397 1.256-.397 2.108 0 .829.127 1.525.381 2.09.264.553.634.974 1.106 1.262.473.275 1.014.413 1.625.413.692 0 1.256-.144 1.694-.432.45-.299.733-.72.848-1.26h2.992c-.219 1.289-.813 2.303-1.781 3.04-.969.736-2.202 1.105-3.701 1.105-1.256 0-2.328-.265-3.216-.794a5.398 5.398 0 01-2.041-2.212c-.461-.932-.692-2.004-.692-3.212 0-1.21.225-2.286.675-3.23a5.238 5.238 0 012.023-2.247c.888-.54 1.971-.811 3.251-.811zm-173.9-18.37c5.703 2.195 12.956 3.615 16.068 9.485 2.285 4.313 1.987 10.346-.846 14.357-1.537 2.172-3.17 3.542-5.51 4.794-3.032 1.567-6.344 2.058-9.717 2.09V62.41c2.254-.013 4.551-.635 5.535-2.897.471-1.085.455-2.673-.02-3.748-.903-2.044-3.597-3.054-5.514-3.846l.005-11.04zM164.63 59.457c.829 0 1.562.145 2.196.433.634.287 1.13.701 1.487 1.243.357.53.536 1.163.536 1.9 0 .805-.219 1.48-.657 2.02-.438.542-1.044.928-1.815 1.159l3.302 5.337h-3.146l-2.889-4.923h-.899v4.923h-2.732V59.457h4.617zm29.554 12.092h-2.888l-.847-2.505h-4.496l-.864 2.505h-2.838l4.393-12.092h3.131l4.409 12.092zm8.283-4.475v-7.617h2.732V71.55h-2.732l-5.171-7.584v7.584h-2.732V59.457h2.732l5.171 7.617zm7.106 4.475h-2.731V59.457h2.731V71.55zm9.823-10.035l-5.308 7.738h5.326v2.297h-8.456v-2.056l5.273-7.773h-5.239v-2.263h8.404v2.057zm12.535 10.035h-2.888l-.847-2.505h-4.497l-.864 2.505h-2.836l4.392-12.092h3.13l4.41 12.092zm15.152 0h-2.733V59.457h2.733V71.55zM56.457 56.127c.556 3.296 2.074 5.403 5.486 6.173v9.243c-4.3-.22-8.797-1.492-12.075-4.373-3.529-3.102-4.59-6.516-4.886-11.045l11.475.002zm52.25-34.699c13.836-.443 25.419 10.394 25.879 24.214.461 13.822-10.374 25.402-24.21 25.88-13.859.476-25.477-10.368-25.939-24.212-.46-13.844 10.41-25.437 24.27-25.882zm43.679 40.292c-.553 0-1.101.138-1.643.415-.53.264-.974.68-1.331 1.244-.346.552-.518 1.26-.518 2.123 0 .852.172 1.561.518 2.126.345.553.784.967 1.314 1.243a3.616 3.616 0 001.66.415c.565 0 1.118-.138 1.66-.415.542-.276.986-.69 1.332-1.243.357-.565.535-1.274.535-2.126 0-.863-.178-1.571-.535-2.123-.358-.565-.808-.98-1.349-1.244a3.582 3.582 0 00-1.643-.415zm34.327 5.147h2.992l-1.522-4.405-1.47 4.405zm37.746 0h2.992l-1.522-4.405-1.47 4.405zM112.975 28.652c-2.465-.48-4.481-.382-6.927-.007.103 1.003.333 2.356.505 3.359-1.183.272-1.843.501-2.972.958l-1.534-3.036c-2.324 1.045-3.992 2.32-5.764 4.11l2.38 2.424c-.61.884-1.197 1.736-1.767 2.645-1.046-.549-2.12-1.085-3.175-1.62-1.31 2.342-1.845 4.187-2.255 6.795l.106.035c1.189.175 2.378.363 3.564.564-.099.86-.144 2.355.003 3.203-1.22.19-2.458.394-3.678.57.406 2.53.968 4.613 2.294 6.858 1.046-.56 2.099-1.113 3.154-1.656.561.938 1.118 1.82 1.847 2.64l-2.431 2.47c1.86 1.865 3.322 2.922 5.716 4.071l1.538-3.133c.94.442 1.941.87 2.976 1.033-.186 1.12-.358 2.244-.514 3.37 2.862.447 4.106.417 6.939 0-.161-1.09-.316-2.291-.511-3.367 1.07-.22 1.955-.522 2.968-.943l1.532 3.04c2.173-1.051 4.13-2.32 5.765-4.122l-2.373-2.421c.558-.818 1.264-1.798 1.752-2.641l3.186 1.62c1.313-2.433 1.854-4.096 2.269-6.836l-.159-.006c-1.094-.13-2.419-.376-3.527-.551.145-.805.102-2.381.006-3.2 1.221-.207 2.444-.4 3.67-.576-.361-2.613-.983-4.484-2.245-6.786-1.054.567-2.213 1.132-3.286 1.68-.502-1.071-1.008-1.752-1.767-2.642.828-.825 1.657-1.688 2.477-2.524-1.778-1.852-3.458-3.012-5.761-4.1l-1.53 3.12c-1.091-.53-1.806-.77-2.976-1.05.185-1.113.353-2.23.505-3.348zm49.769 35.66h1.833c.426 0 .744-.064.952-.19.219-.14.368-.306.449-.501a1.55 1.55 0 00.121-.588c0-.196-.041-.386-.121-.57a1.004 1.004 0 00-.449-.484c-.208-.127-.526-.19-.952-.19h-1.833v2.522zm-53.96-12.948c.546.148.926.125 1.483.07.398 2.882.896 6.057 1.385 8.924-.427.064-.874.114-1.303.168a13.042 13.042 0 01-2.981-.173c.176-.766.347-2.136.473-2.95.305-2.014.618-4.028.943-6.04zm-2.806-1.288c.384.343.797.632 1.214.935l-3.981 8.034c-.496-.245-.968-.545-1.439-.831-.835-.576-1.359-1.022-2.09-1.719l6.296-6.419zm6.956-.068c.187.114 1.566 1.548 1.779 1.765l4.536 4.633a20.195 20.195 0 01-1.896 1.676c-.55.396-.944.64-1.535.963l-4.081-8.125a5.386 5.386 0 001.197-.912zm134.822 7.014l-4.098 1.761v-1.865l4.098-2.055v2.159zm-143.122-9.62c.151.26.392 1.081.517 1.437-1.387.77-3.056 1.539-4.482 2.292-.903.474-2.575 1.37-3.461 1.733l-.106-.134c-.627-1.278-.999-2.576-1.212-3.976 2.592-.505 5.822-.948 8.453-1.364.147-.033.143-.025.291.011zm9.702-.172c2.755.505 6.022 1.003 8.8 1.404-.19 1.406-.433 2.214-.975 3.522l-.32.651c-2.58-1.38-5.343-2.71-7.958-4.067.203-.572.328-.919.453-1.51zm36.165-6.982c.784 0 1.499.14 2.144.416a3.674 3.674 0 011.591 1.192c.404.529.611 1.186.622 1.969h-2.94c-.011-.311-.143-.604-.397-.88-.253-.278-.628-.416-1.124-.416a1.54 1.54 0 00-.916.31c-.242.184-.362.45-.362.796 0 .299.126.558.379.777.254.218.611.42 1.072.605.473.184 1.02.379 1.644.586.472.162.886.352 1.244.571.368.206.675.455.917.742.241.277.426.594.554.951.126.357.189.76.189 1.208 0 .738-.19 1.382-.57 1.936-.37.552-.883.984-1.539 1.295-.658.3-1.412.449-2.266.449-.853 0-1.63-.138-2.334-.414a3.976 3.976 0 01-1.678-1.28c-.415-.575-.639-1.3-.674-2.175h2.87c.046.403.208.766.485 1.088.288.323.721.484 1.297.484.496 0 .864-.11 1.106-.33.254-.218.381-.506.381-.861 0-.162-.028-.313-.086-.451a.91.91 0 00-.295-.397c-.149-.138-.38-.276-.692-.414a10.853 10.853 0 00-1.209-.449c-.946-.299-1.684-.65-2.215-1.054-.53-.402-.904-.836-1.124-1.296a3.432 3.432 0 01-.31-1.416c.011-.783.207-1.434.587-1.952a3.49 3.49 0 011.522-1.192c.635-.265 1.343-.398 2.127-.398zm36.402 0c.83 0 1.625.145 2.386.432a6.194 6.194 0 012.023 1.244 5.815 5.815 0 011.418 1.969c.347.772.519 1.642.519 2.61 0 .967-.172 1.836-.519 2.607a5.807 5.807 0 01-1.418 1.97 6.213 6.213 0 01-2.023 1.244 6.687 6.687 0 01-2.386.43c-.83 0-1.626-.143-2.386-.43a6.441 6.441 0 01-2.023-1.244 5.916 5.916 0 01-1.401-1.97c-.335-.771-.502-1.64-.502-2.608 0-.967.167-1.837.502-2.61a5.924 5.924 0 011.401-1.968 6.42 6.42 0 012.023-1.244 6.684 6.684 0 012.386-.432zm34.205 0c1.498 0 2.732.38 3.701 1.141.968.749 1.562 1.813 1.781 3.195h-2.991c-.116-.586-.399-1.042-.848-1.364-.439-.323-1.003-.483-1.694-.483-.6 0-1.136.143-1.609.432-.472.276-.842.696-1.106 1.26-.266.552-.398 1.255-.398 2.107 0 .829.127 1.526.38 2.09.265.553.635.974 1.107 1.262.472.276 1.015.414 1.626.414.691 0 1.255-.145 1.694-.432.449-.3.732-.72.848-1.26h2.991c-.219 1.29-.813 2.303-1.781 3.04-.969.736-2.203 1.105-3.701 1.105-1.256 0-2.328-.265-3.216-.795a5.397 5.397 0 01-2.041-2.21c-.462-.933-.691-2.005-.691-3.214 0-1.21.224-2.285.674-3.23a5.241 5.241 0 012.023-2.245c.888-.541 1.971-.813 3.251-.813zm-61.973 12.3h-2.731V40.456h2.731v12.09zm6.445-12.091c.83 0 1.58.15 2.248.448.668.3 1.194.732 1.573 1.296.392.564.589 1.238.589 2.021 0 .771-.189 1.445-.57 2.021-.369.564-.889 1.002-1.557 1.313-.657.311-1.418.466-2.283.466h-2.075v4.525h-2.732v-12.09h4.807zm8.161 4.093l3.736-4.093h3.355l-4.237 4.594 4.721 7.496h-3.164l-3.356-5.579-1.055 1.158v4.421h-2.732v-12.09h2.732v4.093zm25.236 5.251l3.165-9.344h5.715l2.437 4.3 2.421-4.3h3.044l-4.133 7.064v5.026h-2.715v-5.026l-3.995-6.8-4.261 11.826h-3.39l-4.34-12.09h2.888l3.164 9.344zm31.622-4.819h4.859v-4.525h2.716v12.09h-2.716V47.33h-4.859v5.217h-2.732v-12.09h2.732v4.525zM61.875 21.602c.117.221.066 8.15.066 9.102-1.629.193-3.598.92-4.297 2.48-1.672 3.733 1.634 5.68 4.297 6.986L61.94 51.3c-3.042-1.01-5.173-1.663-8.062-3.223-4.536-2.602-7.848-6.244-8.046-11.693-.35-9.652 7.124-14.413 15.992-14.806l.05.022zm125.028 21.116c-.554 0-1.101.14-1.643.415-.53.266-.974.68-1.332 1.244-.346.553-.518 1.262-.518 2.125 0 .853.172 1.56.518 2.125.346.552.784.967 1.315 1.243a3.611 3.611 0 001.66.416c.565 0 1.118-.14 1.66-.416.542-.276.986-.69 1.331-1.243.357-.565.537-1.272.537-2.125 0-.863-.18-1.572-.537-2.125-.357-.564-.807-.978-1.349-1.244a3.59 3.59 0 00-1.642-.415zm-77.664.689a3.084 3.084 0 013.344 2.79 3.084 3.084 0 01-6.143.56 3.084 3.084 0 012.799-3.35zm2.007 2.632a1.783 1.783 0 00-3.457.869 1.785 1.785 0 002.154 1.294 1.78 1.78 0 001.303-2.163zm-6.095-1.834c-.2.537-.324.963-.479 1.513l-.79-.125c-2.561-.46-5.407-.895-7.985-1.278.184-1.583.598-2.75 1.284-4.17l7.97 4.06zm58.354 1.485h2.006c.646 0 1.09-.145 1.332-.432.254-.3.381-.645.381-1.036 0-.369-.127-.697-.381-.985-.242-.299-.686-.449-1.332-.449h-2.006v2.902zm-41.616-5.52c.611 1.166 1.069 2.744 1.239 4.045-2.584.366-5.274.836-7.856 1.25l-.927.141c-.127-.545-.286-.975-.473-1.502l7.874-4.013.143.079zm-18.707-6.256c.145.172 1.039 1.994 1.202 2.32l2.892 5.796c-.531.345-.761.488-1.214.938l-1.018-1.049-5.277-5.374c1.242-1.185 1.918-1.788 3.415-2.631zm12.623.008c1.27.555 2.544 1.581 3.535 2.538l-5.152 5.242c-.384.383-.77.79-1.146 1.181-.374-.35-.8-.64-1.216-.94l3.979-8.021zm-7.09-1.49c.797-.12 2.119.05 2.938.145-.177.819-.333 2.083-.464 2.937l-.937 6.007c-.237.05-.856-.097-1.49.01-.47-2.947-.874-6.029-1.398-8.955l1.351-.143zm103.586 5.588l-4.098 1.761v-1.864l4.098-2.056v2.16zm-59.085.38l-2.628 1.348-2.629-1.348v-1.9l2.629 1.468 2.628-1.467v1.9zM63.67 21.575c4.37.166 9.088 1.537 12.357 4.556 3.002 2.773 4.027 5.739 4.181 9.73H68.446c-.032-1.647-1.142-3.39-2.502-4.273-.734-.477-1.434-.663-2.274-.817v-9.196zm85.432 7.239c0 .783.191 1.388.57 1.814.381.414.941.621 1.679.621.726 0 1.285-.207 1.677-.621.404-.426.606-1.031.606-1.814v-7.359h2.714v7.341c0 .944-.155 1.733-.466 2.367-.312.633-.721 1.14-1.228 1.52a4.896 4.896 0 01-1.643.829 6.453 6.453 0 01-1.713.242c-1.129 0-2.057-.225-2.783-.673a4.094 4.094 0 01-1.608-1.797c-.346-.749-.519-1.578-.519-2.488v-7.341h2.714v7.359zm16.705.259v-7.618h2.732v12.092h-2.732l-5.171-7.583v7.583h-2.733V21.455h2.733l5.171 7.618zm7.107 4.474h-2.733V21.455h2.733v12.092zm9.595-9.742h-5.223V26h4.411v2.348h-4.411v2.85h5.223v2.35h-7.954V21.455h7.954v2.35zM51.912 0c3.245 1.598 6.891 3.62 10.117 5.338v14.861c-1.038-.492-2.318-1.202-3.356-1.743l-6.771-3.536c.08-4.903-.004-9.999.01-14.92zm22.001.056c.19.298.07 13.344.07 14.868l-10.066 5.254c-.118-.186-.068-13.218-.07-14.84L73.89.033c.007.006.017.013.022.021z" fill="#1C1F2A"/></g></g><defs><clipPath id="clip0_6898_85"><path fill="#fff" d="M0 0h248v72H0z"/></clipPath><clipPath id="clip1_6898_85"><path fill="#fff" d="M0 0h248v72H0z"/></clipPath></defs></svg>